<?xml version="1.0" encoding="UTF-8" standalone="no"?>
<svg
   id="Layer_2"
   data-name="Layer 2"
   viewBox="0 0 63.860056 53.632128"
   version="1.1"
   sodipodi:docname="favicon.svg"
   width="63.860054"
   height="53.63213"
   xmlns:inkscape="http://www.inkscape.org/namespaces/inkscape"
   xmlns:sodipodi="http://sodipodi.sourceforge.net/DTD/sodipodi-0.dtd"
   xmlns="http://www.w3.org/2000/svg"
   xmlns:svg="http://www.w3.org/2000/svg">
  <defs
     id="defs1" />
  <sodipodi:namedview
     id="namedview1"
     pagecolor="#ffffff"
     bordercolor="#000000"
     borderopacity="0.25"
     inkscape:showpageshadow="2"
     inkscape:pageopacity="0.0"
     inkscape:pagecheckerboard="0"
     inkscape:deskcolor="#d1d1d1"
     inkscape:zoom="6.7309346"
     inkscape:cx="78.518071"
     inkscape:cy="83.123672"
     inkscape:window-width="3440"
     inkscape:window-height="1369"
     inkscape:window-x="-8"
     inkscape:window-y="-8"
     inkscape:window-maximized="1"
     inkscape:current-layer="Layer_2" />
  <g
     id="g7"
     transform="matrix(0.30775018,0,0,0.30775018,5.8756745e-4,5.0393628e-4)">
    <path
       d="m 206.27,45.46 c -2.21,-8.94 -8.31,-17.39 -17.09,-20.14 -4.64,-1.45 -9.69,-1.24 -14.42,-0.12 -3.88,0.92 -6.78,2.24 -8.9,5.62 1.17,-6.45 -2.53,-12.83 -6.93,-17.69 C 154.53,8.27 148.52,5.11 142.3,3.02 132.9,-0.15 122.59,-1.07 112.99,1.44 103.98,3.79 95.68,9.34 90.72,17.18 84.65,14.14 77.62,13.64 70.82,13.53 57.23,13.31 48.24,13.47 33.59,19.25 19.03,25 11.35,42.12 11.23,46.63 c -0.11,4.21 0.18,7.99 0.84,11.52 -5.73,3.18 -9.49,9.32 -11.02,15.72 -1.61,6.73 -1.52,12.4 1.31,21.34 0.96,3.02 4.63,10.03 13.88,16.97 9.07,6.8 24.77,8.16 30.41,15.67 -0.09,3.73 -0.35,7.65 -0.22,11.11 0,0 -0.33,12.88 1.04,17.05 1.69,10.18 28.41,18.26 61.13,18.26 30.96,0 56.53,-7.24 60.63,-16.64 2.37,-3.6 2,-24.72 2.52,-36.79 2.59,-4 6.85,-6.94 10.78,-9.81 5.51,-4.02 10.86,-8.47 14.69,-14.11 4.81,-7.09 6.94,-15.63 8.49,-24.06 1.67,-9.05 2.76,-18.46 0.56,-27.4 z M 43.62,119.51 c -4.93,-0.73 -16.96,-6.78 -20.91,-9.82 -4.3,-3.32 -19.48,-12.6 -18.04,-34.14 0.4,-6 3.67,-11.87 8.24,-13.68 2.12,7.66 6.21,14.29 12.2,21.78 6.47,8.09 18.91,14.01 22.29,26.63 -0.46,5.59 0.93,9.92 -3.78,9.23 z m 116.08,24.85 c -10.95,-5.22 -29.74,-8.67 -51.1,-8.67 -21.36,0 -40.3,3.48 -51.23,8.74 -4.99,1.22 -5.03,-3.29 -4.87,-5 0.48,-5.28 3.91,-5.58 6.76,-6.35 6.87,-1.87 12.64,-3.32 21.35,-3.29 -8.92,-2.73 -18.99,-2.99 -26.43,0.75 -2.5,-2.5 -0.09,-6.65 2.61,-7.9 3.13,-1.44 9.33,-4.95 33.88,-7.24 -13.98,-5.17 -31.96,2.11 -34.3,2.11 -2.57,0 -2.72,-2.18 -2.35,-3.64 0.6,-2.4 4.71,-4.71 10.7,-6.85 12.36,-4.41 15.45,-4.5 28.24,-5.52 12.79,-1.02 25.66,-0.18 38.42,1.12 4.33,0.44 26.72,0.39 32.07,10.91 4.35,8.55 4.5,20.68 4.7,27.58 0.11,3.98 -4.02,4.46 -8.44,3.25 z M 67.38,99.9 c 0.14,-0.03 0.27,-0.06 0.42,-0.1 -0.14,0.03 -0.28,0.06 -0.42,0.1 z m 41.81,72.01 c -31.74,0 -57.48,-7.23 -57.48,-16.14 0,-8.91 25.73,-16.14 57.48,-16.14 31.75,0 57.48,7.23 57.48,16.14 0,8.91 -25.73,16.14 -57.48,16.14 z M 201.06,70.77 c -1.97,11.75 -8.16,22.47 -15.89,31.54 -1.75,2.06 -3.63,4.08 -6.01,5.38 -4.09,2.23 -8.83,1.42 -13.46,-0.12 -1.17,-0.67 -2.37,-1.3 -3.59,-1.9 -10.76,-7.77 -4.51,-12.96 -3.35,-16.55 -9.41,10.85 -12.84,9.08 -17.05,7.64 -6.3,-2.15 1.07,-11.75 4.54,-24.47 -4.87,8.51 -9.59,15.27 -18.17,20 -8.58,4.73 -28.02,3.76 -25.56,-5.73 8.95,-34.54 2.4,-39.94 2.4,-39.94 2.7,10.41 -2.33,22.27 -3.86,27.76 -1.93,6.94 -6.37,11.37 -10.03,15.42 -3.82,4.24 -18.12,8.62 -24.34,10.23 -11.92,2.52 -18.31,0.19 -21.54,-2.9 C 16.67,69.91 18.54,59.73 18.93,52.02 c 0.41,-8.17 1.16,-14.65 8.48,-21.59 4.9,-4.64 18.36,-12.53 42.03,-13.11 15.81,-0.39 29.3,4.63 31.85,17.05 0.84,-6.04 -2.74,-11.93 -7.76,-15.51 3.25,-4.26 20.58,-24.17 50.72,-8.09 9.32,4.97 18.12,13.88 15.4,26.85 -0.94,4.48 -2.17,8.87 -4.03,13.05 -1.8,4.05 -3.6,8.11 -5.4,12.16 6.5,-7.92 12.99,-15.85 19.49,-23.77 2.55,-3.11 5.39,-6.41 9.32,-7.31 4.9,-1.13 9.84,1.92 13.24,5.62 8.06,8.78 10.75,21.64 8.79,33.39 z"
       id="path1"
       style="fill:#331c15;fill-opacity:1" />
    <g
       id="g6"
       style="fill:#f9f6ed;fill-opacity:1">
      <path
         style="fill:#f9f6ed;fill-opacity:1;stroke-width:0.148568"
         d="m 161.51112,144.69508 c -0.93427,-0.16567 -2.13586,-0.58786 -4.40069,-1.54624 -7.43505,-3.14619 -19.89457,-5.79156 -32.16493,-6.82917 -5.99737,-0.50715 -8.42933,-0.59585 -16.34245,-0.59605 -7.90616,-2.1e-4 -10.162474,0.0823 -16.193892,0.59228 -13.381528,1.13144 -25.745857,3.85853 -33.799169,7.45478 -2.379918,1.06277 -3.91639,1.02553 -5.008496,-0.12137 -0.703996,-0.73932 -1.008499,-1.75438 -1.008499,-3.36182 0,-3.43157 1.330288,-5.49272 4.149271,-6.4289 1.811647,-0.60165 10.193287,-2.6462 12.434255,-3.03311 2.935885,-0.50689 5.766931,-0.79912 8.946774,-0.9235 1.417116,-0.0554 2.486804,-0.14897 2.377084,-0.20787 -0.386119,-0.20727 -3.784581,-1.02612 -5.47365,-1.31887 -3.015438,-0.52264 -4.613286,-0.6571 -7.725524,-0.65008 -4.69676,0.0106 -8.430128,0.68172 -11.747027,2.11171 l -1.366839,0.58928 -0.272153,-0.3261 c -0.468524,-0.56139 -0.773912,-1.69862 -0.676656,-2.5198 0.12583,-1.06244 0.814326,-2.4231 1.734952,-3.42874 0.678953,-0.74166 1.077906,-1.00519 2.735677,-1.80702 2.379972,-1.15116 4.22921,-1.84275 7.14394,-2.67174 5.45281,-1.55087 13.096407,-2.86353 22.403158,-3.84738 1.86436,-0.19709 3.418266,-0.38686 3.453126,-0.42172 0.120614,-0.12061 -2.474577,-0.88844 -4.158181,-1.23027 -2.667456,-0.54157 -5.247655,-0.72212 -8.850253,-0.61927 -5.344026,0.15256 -9.291845,0.81296 -17.088501,2.85858 -2.140794,0.56169 -3.948122,0.95563 -4.382749,0.9553 -2.468437,-0.002 -3.096692,-2.92414 -1.098653,-5.11032 1.839215,-2.01239 6.235615,-4.11449 13.804404,-6.60047 6.273596,-2.06056 10.410556,-2.9076 17.159579,-3.51341 8.468586,-0.76015 10.030402,-0.84625 16.788162,-0.92544 8.73511,-0.10236 13.74622,0.1254 25.03367,1.1378 2.65565,0.23819 5.49701,0.47373 6.31413,0.52343 15.62041,0.94999 24.81586,4.06438 28.52331,9.66051 1.71449,2.58789 3.39735,7.92475 4.2397,13.44539 0.61084,4.00329 1.12677,11.64714 1.01448,15.03022 -0.049,1.47665 -0.083,1.62878 -0.49831,2.22852 -0.3053,0.4409 -0.71899,0.78024 -1.31322,1.0772 -0.76082,0.38022 -1.05316,0.43857 -2.37708,0.47446 -0.83027,0.0225 -1.8692,-0.0229 -2.30875,-0.1008 z"
         id="path3" />
      <path
         style="fill:#f9f6ed;fill-opacity:1;stroke-width:0.148568"
         d="m 104.666,171.80307 c -0.89884,-0.0268 -3.17192,-0.12092 -5.051304,-0.20906 -24.498133,-1.14884 -43.744174,-6.69561 -47.251724,-13.6181 -0.389072,-0.76787 -0.438533,-1.0163 -0.438533,-2.20259 0,-1.15865 0.05465,-1.4484 0.409451,-2.17086 0.977612,-1.99068 3.389446,-3.93703 7.167505,-5.78418 8.539523,-4.17511 22.269236,-6.8988 39.741881,-7.88397 4.093554,-0.23081 15.789254,-0.23304 19.833794,-0.004 12.66404,0.71784 22.75621,2.23015 31.34008,4.69628 3.33688,0.95869 5.82701,1.89628 8.47609,3.19146 3.78652,1.85129 6.03013,3.65412 7.09724,5.70292 0.43273,0.83083 0.47672,1.03801 0.47814,2.25212 0.001,1.24278 -0.0348,1.40523 -0.51389,2.3028 -3.65485,6.84704 -22.49736,12.2864 -46.80337,13.51096 -3.21145,0.1618 -11.9415,0.29197 -14.48536,0.21599 z"
         id="path4" />
      <path
         style="fill:#f9f6ed;fill-opacity:1;stroke-width:0.148568"
         d="m 42.118965,119.08406 c -2.634716,-0.68932 -5.842171,-2.02041 -10.622596,-4.40838 -4.494833,-2.2453 -6.895579,-3.69004 -10.063977,-6.0564 -3.358896,-2.50863 -4.635098,-3.60511 -6.901615,-5.92972 C 9.1163137,97.136315 5.9878251,90.779327 4.9632349,83.248621 4.6073593,80.632945 4.6083231,75.814958 4.9651322,73.763902 5.8753682,68.531568 8.669943,64.10416 12.187427,62.321716 l 0.677799,-0.343467 0.410989,1.361509 c 1.574068,5.214518 4.711313,11.006675 9.307473,17.183978 3.208096,4.311725 4.995151,6.190748 10.318667,10.849695 8.761344,7.66761 11.901656,11.577789 13.896978,17.303899 0.457417,1.31268 0.465652,1.38504 0.450686,3.96001 -0.02599,4.47123 -0.295908,5.78788 -1.327404,6.47492 -0.674312,0.44913 -2.017247,0.43917 -3.80365,-0.0282 z"
         id="path5" />
      <path
         style="fill:#f9f6ed;fill-opacity:1;stroke-width:0.148568"
         d="m 171.44722,108.80098 c -4.97941,-0.7874 -9.10888,-2.76499 -12.1914,-5.83842 -2.22546,-2.21889 -3.10222,-3.96865 -3.10795,-6.202602 -0.004,-1.47069 0.12833,-1.892981 1.58528,-5.067623 0.61219,-1.333944 1.0736,-2.464826 1.02536,-2.51307 -0.0482,-0.04825 -1.14078,0.979904 -2.42786,2.284778 -3.35867,3.405104 -5.92761,5.243838 -8.28287,5.928532 -1.26299,0.36716 -3.1459,0.229375 -4.97701,-0.364201 -1.72738,-0.55995 -2.43315,-0.955634 -3.03152,-1.699574 -0.45669,-0.567809 -0.45976,-0.583485 -0.45004,-2.3028 0.0119,-2.111429 0.12477,-2.485456 2.9201,-9.679476 2.05969,-5.30078 2.51413,-6.551517 3.31979,-9.136919 0.83383,-2.675849 0.71542,-2.646415 -1.06197,0.263974 -3.87095,6.338472 -6.94224,10.211858 -10.49724,13.238686 -4.99773,4.25521 -9.21608,6.224711 -14.8175,6.91813 -1.61862,0.200375 -6.108,0.200928 -7.73332,9.51e-4 -4.40072,-0.541457 -7.78161,-2.328987 -8.85995,-4.684385 -0.34372,-0.750787 -0.37792,-0.972445 -0.30506,-1.977335 0.0451,-0.622468 0.516,-2.970286 1.04639,-5.217373 1.61955,-6.861556 2.44869,-11.221611 3.15698,-16.601025 0.30479,-2.314812 0.40333,-3.815369 0.46598,-7.095536 0.0895,-4.684064 -0.0565,-6.854344 -0.60578,-9.006326 -0.47278,-1.852304 -1.39451,-3.782871 -1.6731,-3.504289 -0.0528,0.05278 0.0468,0.991414 0.22132,2.085864 0.73083,4.583699 0.18432,10.482847 -1.55761,16.813165 -0.59966,2.179252 -2.79835,9.22495 -3.40762,10.919732 -1.162999,3.235084 -3.44596,6.759684 -6.846057,10.569436 -2.279362,2.553988 -3.991731,4.133304 -5.328154,4.914151 -3.942787,2.303695 -10.537574,4.908084 -17.58205,6.943435 -5.160462,1.49101 -7.486383,1.90421 -11.462951,2.0364 C 53.430622,101.01178 50.029246,100.283 46.983832,98.256654 45.019819,96.949846 38.192955,90.142914 33.520065,84.832202 25.666297,75.906437 20.779888,67.713176 19.439608,61.222868 19.050179,59.337053 18.913044,54.333471 19.15604,50.876392 c 0.461959,-6.57225 1.344414,-9.539005 3.106003,-12.982888 1.198229,-2.342522 2.223989,-4.139738 4.405873,-6.332331 3.012615,-3.0274 5.513386,-4.755881 10.102609,-6.982711 2.98518,-1.4485 5.226326,-2.342198 8.149326,-3.24969 5.209107,-1.617251 10.686913,-2.708402 17.330048,-3.452056 3.381453,-0.378532 13.71807,-0.377661 16.268172,0.0014 9.289194,1.380687 15.660333,4.517037 19.459834,9.579581 1.327825,1.769224 2.494745,4.304833 3.152095,6.849191 0.0384,0.14853 0.10086,0.164088 0.21214,0.05281 0.19698,-0.196986 0.1819,-2.70998 -0.0242,-4.040089 -0.20107,-1.297308 -0.6405,-2.648245 -1.332803,-4.097369 -1.013943,-2.122384 -1.999788,-3.452953 -4.106963,-5.543059 l -1.993582,-1.977433 1.223264,-1.42197 c 0.672795,-0.782084 1.912963,-2.044746 2.755931,-2.805917 8.733883,-7.8864005 19.151563,-11.0391075 30.350253,-9.1849143 6.36221,1.0534052 13.92126,4.0790476 19.46761,7.7922503 6.79174,4.546977 11.05773,10.462027 12.02777,16.677232 0.2309,1.479382 0.19595,5.214866 -0.0638,6.820731 -0.29255,1.808523 -1.41796,6.338213 -2.10243,8.46208 -0.74875,2.323316 -1.31788,3.721668 -4.21387,10.353503 -2.78732,6.382956 -3.17023,7.30741 -3.06881,7.40883 0.0724,0.07236 2.16599,-2.434665 13.56055,-16.238124 8.01111,-9.704733 8.9759,-10.817964 10.43609,-12.041854 1.2647,-1.060025 3.27867,-2.169496 4.55052,-2.506814 1.17974,-0.312892 3.48342,-0.310323 4.77404,0.0053 0.55759,0.136372 1.63113,0.537103 2.38563,0.890516 6.60681,3.094687 12.32689,11.45394 14.51567,21.213037 0.79223,3.532316 0.88118,4.468507 0.88487,9.312813 0.004,4.873729 -0.10081,5.888963 -1.03078,10.014475 -1.59352,7.069117 -5.1972,14.952763 -9.9214,21.704746 -3.00852,4.299873 -6.9026,8.936162 -8.98321,10.695402 -1.17859,0.99654 -3.10517,2.08839 -4.41392,2.5015 -1.39384,0.43996 -4.19351,0.6643 -5.57129,0.44642 z"
         id="path6"
         sodipodi:nodetypes="sscsssssscssssssscsscsscssssssssssssssscscscsscssssssssssssssscssssss" />
    </g>
  </g>
</svg>
